# xmcd
#
# Track frame offsets: 
#        150
#        12849
#        25902
#        37539
#        50272
#        63514
#        77816
#        89773
#        102795
#        116016
#        129142
#        142183
#        155077
#        168886
#        182560
#        194439
#        206830
#        219245
#        233909
#        248284
#        262348
#        276409
#        289067
#        300386
#        312200
#
# Disc length: 4349 seconds
#
# Revision: 2
# Processed by: cddbd v1.5.2PL0 Copyright (c) Steve Scherf et al.
# Submitted via: ExactAudioCopyFreeDBPlugin 1.0
#
DISCID=5d10fb19
DTITLE=Various Artist - Jazzin' the Blues Vol. 2
DYEAR=1996
DGENRE=Blues
TTITLE0=Bandanna Girls - Money Is Honey
TTITLE1=Bandanna Girls - Part Time Papa
TTITLE2=Bandanna Girls - Every Time I Hear Your Name
TTITLE3=Bandanna Girls - Baby Would You Dare
TTITLE4=Wingy Carpenter - Put Me Back in the Alley
TTITLE5=Wingy Carpenter - Rhythm of the Dishes and Pans
TTITLE6=Wingy Carpenter - Look Out Papa Don't You Bend Down
TTITLE7=Wingy Carpenter - Team Up
TTITLE8=Wingy Carpenter - Preachin' Trumpet Blues
TTITLE9=Creole George Guesnon - Mississippi Town
TTITLE10=Creole George Guesnon - Iberville and Franklin
TTITLE11=Creole George Guesnon - Black Woman Blues
TTITLE12=Creole George Guesnon - Goodbye, Good Luck to You
TTITLE13=Creole George Guesnon - Graveyard Love Blues
TTITLE14=Creole George Guesnon - Top and Bottom Blues
TTITLE15=Four Blackamoors - Break It Up Charlie
TTITLE16=Four Blackamoors - Darling, If You Can't Have Fifty Take Fift
TTITLE16=y
TTITLE17=Four Blackamoors - Romance in the Dark
TTITLE18=Mabel Robinson - You Don't Know My Mind
TTITLE19=Mabel Robinson - Somebody's Getting My Love
TTITLE20=Mabel Robinson - Don't Give Up the Old Love
TTITLE21=Mabel Robinson - Search for Your Heart and See
TTITLE22=Mabel Robinson - Me and My Chauffeur
TTITLE23=Mabel Robinson - I've Got Too Many Blues
TTITLE24=The Grooveneers - I'm Not That Way Anymore
EXTD=Document, DOCD-5468 YEAR: 1996
EXTT0=
EXTT1=
EXTT2=
EXTT3=
EXTT4=
EXTT5=
EXTT6=
EXTT7=
EXTT8=
EXTT9=
EXTT10=
EXTT11=
EXTT12=
EXTT13=
EXTT14=
EXTT15=
EXTT16=
EXTT17=
EXTT18=
EXTT19=
EXTT20=
EXTT21=
EXTT22=
EXTT23=
EXTT24=
PLAYORDER=
